M48
; DRILL file {KiCad 9.0.6} date 2025-12-03T23:40:49+0900
; FORMAT={-:-/ absolute / metric / decimal}
; #@! TF.CreationDate,2025-12-03T23:40:49+09:00
; #@! TF.GenerationSoftware,Kicad,Pcbnew,9.0.6
; #@! TF.FileFunction,Plated,1,2,PTH
FMAT,2
METRIC
; #@! TA.AperFunction,Plated,PTH,ViaDrill
T1C0.300
; #@! TA.AperFunction,Plated,PTH,ComponentDrill
T2C0.813
; #@! TA.AperFunction,Plated,PTH,ComponentDrill
T3C0.850
%
G90
G05
T1
X47.55Y-46.45
X52.0Y-42.0
X80.0Y-22.4
X80.0Y-25.1
X80.5Y-29.4
X81.3Y-25.1
X81.8Y-27.2
X82.8Y-27.2
X84.8Y-38.6
X85.0Y-26.1
X87.5Y-39.8
X89.6Y-49.4
X91.6Y-36.2
X92.4Y-37.5
X92.4Y-45.4
X92.7Y-28.4
X92.71Y-30.11
X93.1Y-36.9
X93.8Y-36.2
X93.8Y-43.3
X102.7Y-46.4
T2
X43.45Y-25.065
X43.45Y-32.685
X43.5Y-44.415
X43.5Y-52.035
X116.962Y-44.315
X116.962Y-51.935
X117.05Y-25.315
X117.05Y-32.935
T3
X58.36Y-21.9
X58.36Y-24.44
X58.36Y-26.98
X58.36Y-29.52
X58.36Y-32.06
X58.36Y-34.6
X58.36Y-37.14
X58.36Y-39.68
X58.36Y-42.22
X60.95Y-42.27
X63.49Y-42.27
X66.03Y-42.27
X68.57Y-42.27
X71.11Y-42.27
X73.7Y-21.9
X73.7Y-24.44
X73.7Y-26.98
X73.7Y-29.52
X73.7Y-32.06
X73.7Y-34.6
X73.7Y-37.14
X73.7Y-39.68
X73.7Y-42.22
M30
